# xmcd
#
# Track frame offsets:
# 150
# 21219
# 41759
# 56743
# 75257
# 89822
# 107151
# 122101
# 134458
# 152747
# 169071
# 182045
#
# Disc length: 2597 seconds
#
#
# Revision: 0
# Processed by: cddbd v1.5.1PL0 Copyright (c) Steve Scherf et al.
# Submitted via: FreeRIP 2.931 
#
DISCID=a00a230c
DTITLE=Lairton - Lairton e seus Teclados Vol. 7
DYEAR=1900
DGENRE=Vocal
TTITLE0=Don´t Cry
TTITLE1=Sonho Limdo
TTITLE2=Amor Sem Fim
TTITLE3=Sem Amor Não Dá
TTITLE4=Brincar de Amar
TTITLE5=Diz Coração
TTITLE6=A Noite do Meu Bem
TTITLE7=Fica Comigo Esta Noite
TTITLE8=Lembranças
TTITLE9=Último Desejo
TTITLE10=Negue
TTITLE11=Pensando em Ti
EXTD=
EXTT0=
EXTT1=
EXTT2=
EXTT3=
EXTT4=
EXTT5=
EXTT6=
EXTT7=
EXTT8=
EXTT9=
EXTT10=
EXTT11=
PLAYORDER=
